<?xml version="1.0" encoding="utf-8"?>
<!-- Generator: Adobe Illustrator 27.0.1, SVG Export Plug-In . SVG Version: 6.00 Build 0)  -->
<svg version="1.1" id="Layer_1" xmlns="http://www.w3.org/2000/svg" xmlns:xlink="http://www.w3.org/1999/xlink" x="0px" y="0px"
	 viewBox="0 0 502 502" style="enable-background:new 0 0 502 502;" xml:space="preserve">
<style type="text/css">
	.st0{fill:#65A844;}
</style>
<g>
	<polygon class="st0" points="420,472.6 83,472.6 10,232.9 492,232.9 	"/>
	<g>
		<g>
			<path d="M500,227c-1.9-2.5-4.9-4-8-4h-53l2.3-6.5c1.8-5.2-0.9-10.9-6.1-12.7c-5.2-1.8-10.9,0.9-12.7,6.1l-4.6,13.1H83.2
				L19.4,40.3c-1.8-5.2-7.5-8-12.7-6.1c-5.2,1.8-8,7.5-6.1,12.7l61.5,176H10c-3.2,0-6.1,1.5-8,4c-1.9,2.5-2.5,5.8-1.5,8.9l73,239.7
				c1.3,4.2,5.2,7.1,9.6,7.1H420c4.4,0,8.3-2.9,9.6-7.1l72-239.7C502.5,232.8,501.9,229.5,500,227z M412.5,462.6H90.4l-12.6-41.5
				H355c5.5,0,10-4.5,10-10s-4.5-10-10-10H72c-0.1,0-0.2,0-0.3,0l-12.2-40h232.6c5.5,0,10-4.5,10-10s-4.5-10-10-10H53.4l-11.9-39.1
				H335c5.5,0,10-4.5,10-10s-4.5-10-10-10H35.4l-11.9-39.2h455.1L412.5,462.6z"/>
			<path d="M439.7,190.5c1.1,0.4,2.2,0.6,3.3,0.6c4.1,0,8-2.6,9.4-6.7l48-137.5c1.8-5.2-0.9-10.9-6.1-12.7
				c-5.2-1.8-10.9,0.9-12.7,6.1l-48,137.5C431.7,183,434.5,188.7,439.7,190.5z"/>
			<path d="M328.3,351.2c0,5.5,4.5,10,10,10H369c5.5,0,10-4.5,10-10s-4.5-10-10-10h-30.7C332.7,341.2,328.3,345.6,328.3,351.2z"/>
			<path d="M383,302.1h32c5.5,0,10-4.5,10-10s-4.5-10-10-10h-32c-5.5,0-10,4.5-10,10S377.5,302.1,383,302.1z"/>
		</g>
	</g>
</g>
</svg>
