<?xml version="1.0" encoding="utf-8"?>
<!-- Generator: Adobe Illustrator 27.0.1, SVG Export Plug-In . SVG Version: 6.00 Build 0)  -->
<svg version="1.1" id="Layer_1" xmlns="http://www.w3.org/2000/svg" xmlns:xlink="http://www.w3.org/1999/xlink" x="0px" y="0px"
	 viewBox="0 0 473.9 473.9" style="enable-background:new 0 0 473.9 473.9;" xml:space="preserve">
<style type="text/css">
	.st0{fill:#93793D;}
	.st1{fill:#65A844;}
	.st2{fill:#5C9340;}
</style>
<g>
	<path class="st0" d="M240.9,238.7c-13.7,0-24.8,11.1-24.8,24.8v152.7c0,13.7,11.1,15.4,24.8,15.4c13.7,0,24.8-1.7,24.8-15.4V263.5
		C265.7,249.8,254.6,238.7,240.9,238.7z"/>
	<polygon class="st0" points="251.9,345.5 319.8,309.4 325.5,313.1 261.2,373 	"/>
	<polygon class="st0" points="235,335.6 164.6,238.9 159.6,242.6 220.7,361.1 	"/>
</g>
<g>
	<circle class="st1" cx="152.9" cy="206.5" r="39.3"/>
	<circle class="st1" cx="332.3" cy="206.5" r="39.3"/>
	<circle class="st1" cx="193.5" cy="244.4" r="39.3"/>
	<circle class="st1" cx="294.3" cy="243.1" r="39.3"/>
	
		<ellipse transform="matrix(0.1602 -0.9871 0.9871 0.1602 -47.3469 454.2024)" class="st1" cx="243.3" cy="254.9" rx="39.3" ry="39.3"/>
	<circle class="st1" cx="193.5" cy="172.4" r="39.3"/>
	<circle class="st1" cx="294.3" cy="172.4" r="39.3"/>
	<circle class="st1" cx="175.2" cy="127.9" r="39.3"/>
	<circle class="st1" cx="307.4" cy="127.9" r="39.3"/>
	<circle class="st1" cx="155.5" cy="161.9" r="39.3"/>
	<circle class="st1" cx="329.7" cy="161.9" r="39.3"/>
	<circle class="st1" cx="243.3" cy="172.4" r="68.1"/>
	<circle class="st1" cx="202.7" cy="112.2" r="39.3"/>
	
		<ellipse transform="matrix(0.1735 -0.9848 0.9848 0.1735 104.7579 320.3709)" class="st1" cx="243.3" cy="97.8" rx="39.3" ry="39.3"/>
	<circle class="st1" cx="281.2" cy="112.2" r="39.3"/>
</g>
<g>
	<path class="st2" d="M291.7,164c-4.1,0-8-0.4-11.8-1.2c-9.1,9.4-23.4,15.6-39.6,15.6c-15.9,0-30-5.9-39.1-15.1
		c-2.9,0.4-5.9,0.7-9,0.7c-23.2,0-42.6-12.5-48.1-29.5c-1,3.1-1.6,6.4-1.6,9.8c0,21.7,22.3,39.3,49.8,39.3c3.1,0,6.1-0.3,9-0.7
		c9.1,9.2,23.2,15.1,39.1,15.1c16.2,0,30.5-6.1,39.6-15.6c3.8,0.7,7.7,1.2,11.8,1.2c27.5,0,49.8-17.6,49.8-39.3
		c0-3.4-0.6-6.7-1.6-9.8C334.3,151.5,314.9,164,291.7,164z"/>
	<path class="st2" d="M299.1,220.7c-4.7,0-9.2-0.5-13.6-1.3c-10.4,10.8-26.9,17.9-45.4,17.9c-18.2,0-34.4-6.8-44.9-17.3
		c-3.3,0.5-6.8,0.8-10.3,0.8c-26.6,0-48.9-14.4-55.2-33.8c-1.2,3.6-1.9,7.4-1.9,11.3c0,24.9,25.6,45.1,57.1,45.1
		c3.5,0,6.9-0.3,10.3-0.8c10.5,10.5,26.7,17.3,44.9,17.3c18.6,0,35-7,45.4-17.9c4.4,0.8,8.9,1.3,13.6,1.3
		c31.5,0,57.1-20.2,57.1-45.1c0-3.9-0.7-7.7-1.9-11.3C347.9,206.4,325.6,220.7,299.1,220.7z"/>
	<path class="st2" d="M275.5,115.7c-2.8,0-5.4-0.3-8-0.8c-6.1,6.4-15.8,10.5-26.7,10.5c-10.7,0-20.2-4-26.4-10.2c-2,0.3-4,0.5-6,0.5
		c-15.6,0-28.7-8.4-32.5-19.9c-0.7,2.1-1.1,4.3-1.1,6.6c0,14.6,15,26.5,33.6,26.5c2.1,0,4.1-0.2,6-0.5c6.1,6.2,15.7,10.2,26.4,10.2
		c10.9,0,20.6-4.1,26.7-10.5c2.6,0.5,5.2,0.8,8,0.8c18.5,0,33.6-11.9,33.6-26.5c0-2.3-0.4-4.5-1.1-6.6
		C304.2,107.3,291.1,115.7,275.5,115.7z"/>
</g>
<g>
	<circle class="st1" cx="314.9" cy="308.6" r="7.9"/>
	<circle class="st1" cx="350.5" cy="312.8" r="7.9"/>
	<circle class="st1" cx="322.1" cy="317.1" r="7.9"/>
	<circle class="st1" cx="342.3" cy="317.4" r="7.9"/>
	<circle class="st1" cx="331.8" cy="319.4" r="7.9"/>
	<circle class="st1" cx="323.7" cy="302.8" r="7.9"/>
	<circle class="st1" cx="343.8" cy="305.2" r="7.9"/>
	<circle class="st1" cx="321.2" cy="293.5" r="7.9"/>
	<circle class="st1" cx="347.4" cy="296.6" r="7.9"/>
	<circle class="st1" cx="316.4" cy="299.9" r="7.9"/>
	<circle class="st1" cx="351" cy="303.9" r="7.9"/>
	<circle class="st1" cx="333.6" cy="304" r="13.6"/>
	<circle class="st1" cx="327" cy="291.1" r="7.9"/>
	<circle class="st1" cx="335.4" cy="289.2" r="7.9"/>
	<circle class="st1" cx="342.6" cy="292.9" r="7.9"/>
</g>
<path class="st2" d="M342,311.2c-0.7,0-1.4-0.1-2.1-0.2c-1.6,1.7-4.1,2.7-6.9,2.7c-2.8,0-5.3-1-6.9-2.6c-0.5,0.1-1,0.1-1.6,0.1
	c-4.1,0-7.5-2.2-8.4-5.2c-0.2,0.5-0.3,1.1-0.3,1.7c0,3.8,3.9,6.9,8.7,6.9c0.5,0,1.1,0,1.6-0.1c1.6,1.6,4.1,2.6,6.9,2.6
	c2.8,0,5.4-1.1,6.9-2.7c0.7,0.1,1.4,0.2,2.1,0.2c4.8,0,8.7-3.1,8.7-6.9c0-0.6-0.1-1.2-0.3-1.7C349.5,309,346.1,311.2,342,311.2z"/>
</svg>
